<?xml version="1.0" encoding="UTF-8"?>
<svg width="922px" height="922px" viewBox="0 0 922 922" version="1.1" xmlns="http://www.w3.org/2000/svg" xmlns:xlink="http://www.w3.org/1999/xlink">
    <!-- Generator: Sketch 48.2 (47327) - http://www.bohemiancoding.com/sketch -->
    <title>icon</title>
    <desc>Created with Sketch.</desc>
    <defs></defs>
    <g id="Page-1" stroke="none" stroke-width="1" fill="none" fill-rule="evenodd">
        <g id="icon" transform="translate(14.000000, 0.000000)" fill-rule="nonzero">
            <path d="M0.71744,475.40256 C0.71744,721.943886 200.578674,921.80512 447.12,921.80512 C693.661326,921.80512 893.52256,721.943886 893.52256,475.40256 C893.52256,228.861234 693.661326,29 447.12,29 C200.578674,29 0.71744,228.861234 0.71744,475.40256 Z" id="Shape" fill="#000000"></path>
            <path d="M0.71744,446.60256 C0.71744,693.143886 200.578674,893.00512 447.12,893.00512 C693.661326,893.00512 893.52256,693.143886 893.52256,446.60256 C893.52256,200.061234 693.661326,0.2 447.12,0.2 C200.578674,0.2 0.71744,200.061234 0.71744,446.60256 Z" id="Shape" fill="#D95E5E"></path>
            <path d="M115.91744,446.60256 C115.91744,629.520683 264.201877,777.80512 447.12,777.80512 C630.038123,777.80512 778.32256,629.520683 778.32256,446.60256 C778.32256,263.684437 630.038123,115.4 447.12,115.4 C264.201877,115.4 115.91744,263.684437 115.91744,446.60256 Z" id="Shape" fill="#F4F0E6"></path>
            <path d="M447.12,86.6 C248.29504,86.6 87.11744,247.77248 87.11744,446.60256 C87.11744,645.41728 248.29504,806.60512 447.12,806.60512 C645.93472,806.60512 807.12256,645.4224 807.12256,446.60256 C807.12256,247.77248 645.93472,86.6 447.12,86.6 Z M447.12,763.40256 C272.15424,763.40256 130.32,621.56832 130.32,446.60256 C130.32,271.6368 272.15424,129.80256 447.12,129.80256 C622.08576,129.80256 763.92,271.6368 763.92,446.60256 C763.92,621.56832 622.08576,763.40256 447.12,763.40256 Z" id="Shape" fill="#E4DED0"></path>
            <path d="M447.12,129.80256 C443.299787,129.801201 439.63565,131.318173 436.934352,134.019472 C434.233053,136.72077 432.716081,140.384907 432.71744,144.20512 L432.71744,187.40768 C432.925567,195.212452 439.312453,201.431292 447.12,201.431292 C454.927547,201.431292 461.314433,195.212452 461.52256,187.40768 L461.52256,144.20512 C461.526642,140.384074 460.010544,136.718354 457.308655,134.016465 C454.606766,131.314576 450.941046,129.798478 447.12,129.80256 Z M447.12,691.4 C443.299787,691.398641 439.63565,692.915613 436.934352,695.616912 C434.233053,698.31821 432.716081,701.982347 432.71744,705.80256 L432.71744,749.00512 C432.925567,756.809892 439.312453,763.028732 447.12,763.028732 C454.927547,763.028732 461.314433,756.809892 461.52256,749.00512 L461.52256,705.80256 C461.525279,701.981931 460.008744,698.317003 457.307151,695.615409 C454.605557,692.913816 450.940629,691.397281 447.12,691.4 Z M749.52256,432.2 L706.32,432.2 C698.365686,432.2 691.91744,438.648246 691.91744,446.60256 C691.91744,454.556874 698.365686,461.00512 706.32,461.00512 L749.52256,461.00512 C757.476874,461.00512 763.92512,454.556874 763.92512,446.60256 C763.92512,438.648246 757.476874,432.2 749.52256,432.2 Z M187.92,432.2 L144.71744,432.2 C136.763126,432.2 130.31488,438.648246 130.31488,446.60256 C130.31488,454.556874 136.763126,461.00512 144.71744,461.00512 L187.92,461.00512 C195.874314,461.00512 202.32256,454.556874 202.32256,446.60256 C202.32256,438.648246 195.874314,432.2 187.92,432.2 Z" id="Shape" fill="#DCD8CD"></path>
            <path d="M648.72,475.40256 L461.51744,475.40256 L461.51744,504.20256 L648.72,504.20256 C656.567075,504.054588 662.851019,497.65103 662.851019,489.80256 C662.851019,481.95409 656.567075,475.550532 648.72,475.40256 Z" id="Shape" fill="#000000"></path>
            <path d="M634.32256,417.80256 L461.52256,417.80256 C445.828409,418.098505 433.260522,430.905619 433.260522,446.60256 C433.260522,462.299501 445.828409,475.106615 461.52256,475.40256 L634.32256,475.40256 C650.016711,475.106615 662.584598,462.299501 662.584598,446.60256 C662.584598,430.905619 650.016711,418.098505 634.32256,417.80256 Z" id="Shape" fill="#D95E5E"></path>
            <path d="M450.23808,416.2 L297.5136,263.46528 C290.236129,256.189637 279.629958,253.349151 269.690331,256.013805 C259.750704,258.678459 251.987686,266.443429 249.325531,276.383725 C246.663376,286.324022 249.506528,296.929478 256.784,304.20512 L409.52384,456.93984 C420.808041,467.97933 438.876136,467.877463 450.035143,456.711439 C461.194151,445.545415 461.284661,427.47726 450.23808,416.2 Z" id="Shape" fill="#D95E5E"></path>
            <path d="M375.12256,468.19872 C375.122559,491.349073 387.473125,512.740882 407.521919,524.316059 C427.570713,535.891236 452.271847,535.891236 472.320641,524.316059 C492.369435,512.740882 504.720001,491.349073 504.72,468.19872 C504.720001,445.048367 492.369435,423.656558 472.320641,412.081381 C452.271847,400.506204 427.570713,400.506204 407.521919,412.081381 C387.473125,423.656558 375.122559,445.048367 375.12256,468.19872 Z" id="Shape" fill="#000000"></path>
            <path d="M375.12256,439.39872 C375.122559,462.549073 387.473125,483.940882 407.521919,495.516059 C427.570713,507.091236 452.271847,507.091236 472.320641,495.516059 C492.369435,483.940882 504.720001,462.549073 504.72,439.39872 C504.720001,416.248367 492.369435,394.856558 472.320641,383.281381 C452.271847,371.706204 427.570713,371.706204 407.521919,383.281381 C387.473125,394.856558 375.122559,416.248367 375.12256,439.39872 Z" id="Shape" fill="#FFFFFF"></path>
        </g>
    </g>
</svg>